<?xml version="1.0" standalone="no"?>
<!DOCTYPE svg PUBLIC "-//W3C//DTD SVG 20010904//EN"
 "http://www.w3.org/TR/2001/REC-SVG-20010904/DTD/svg10.dtd">
<svg version="1.0" xmlns="http://www.w3.org/2000/svg"
 width="3736.000000pt" height="116.000000pt" viewBox="0 0 3736.000000 116.000000"
 preserveAspectRatio="xMidYMid meet">

<g transform="translate(0.000000,116.000000) scale(0.100000,-0.100000)"
fill="#000000" stroke="none">
<path d="M1648 806 c43 -48 37 -56 -37 -56 -41 0 -71 -4 -73 -11 -3 -8 -20 -8
-63 0 -32 6 -94 11 -138 11 -74 0 -80 -2 -108 -29 -23 -24 -29 -38 -29 -74 0
-28 6 -50 16 -58 9 -8 66 -39 127 -69 106 -52 112 -57 115 -88 5 -47 -21 -82
-60 -82 -47 0 -110 42 -138 92 l-25 43 -11 -70 c-6 -38 -15 -82 -19 -97 -9
-34 -3 -35 34 -7 l29 21 65 -26 c100 -40 183 -31 236 25 28 31 29 106 1 142
-19 24 -97 61 -217 103 -62 21 -72 41 -46 87 17 28 25 32 67 35 62 4 116 -29
142 -88 l19 -42 20 64 20 63 54 3 54 3 -7 -173 c-6 -191 0 -227 46 -261 59
-44 189 -13 223 52 29 57 41 58 85 8 66 -75 98 -90 183 -85 161 8 236 97 213
253 -9 57 -56 107 -134 143 -103 47 -240 13 -290 -73 -19 -34 -22 -51 -20
-112 2 -40 3 -73 2 -73 -1 0 -19 7 -40 16 -22 9 -51 20 -65 24 -26 8 -26 7
-16 -21 10 -24 8 -32 -13 -54 -31 -33 -58 -32 -66 2 -8 29 3 293 12 317 5 12
21 16 69 16 57 0 63 2 69 23 12 45 9 47 -64 47 -75 0 -79 4 -56 48 l14 27 -99
1 -99 0 18 -20z m596 -207 c32 -15 49 -66 49 -144 0 -95 -42 -155 -109 -155
-73 0 -109 129 -63 230 36 79 65 95 123 69z"/>
<path d="M6009 805 c42 -47 36 -55 -38 -55 -41 0 -71 -4 -73 -11 -3 -8 -20 -8
-63 0 -32 6 -94 11 -138 11 -74 0 -80 -2 -108 -29 -23 -24 -29 -38 -29 -74 0
-28 6 -50 16 -58 9 -8 66 -39 127 -69 106 -52 112 -57 115 -88 5 -47 -21 -82
-60 -82 -47 0 -110 42 -138 92 l-25 43 -11 -70 c-6 -38 -15 -82 -19 -97 -9
-34 -3 -35 34 -7 l29 21 65 -26 c78 -31 136 -33 192 -6 54 26 69 55 62 117 -7
61 -30 82 -139 122 -161 60 -173 71 -138 129 18 29 24 32 68 32 62 0 109 -30
137 -88 l20 -42 20 62 20 63 53 3 52 3 -2 -188 c-3 -169 -1 -192 15 -217 28
-42 75 -58 137 -46 68 13 86 24 115 70 13 21 29 41 35 45 6 4 31 -17 57 -45
25 -28 58 -57 74 -65 42 -22 144 -19 209 8 49 19 58 28 83 77 25 48 28 63 24
122 -6 87 -33 125 -122 169 -58 28 -72 31 -128 27 -75 -6 -137 -36 -169 -80
-20 -28 -23 -45 -23 -116 0 -45 -1 -82 -1 -82 -1 0 -19 7 -40 16 -22 9 -51 20
-65 24 -26 8 -26 7 -16 -21 10 -24 8 -32 -13 -54 -31 -33 -58 -32 -66 2 -8 29
3 293 12 317 5 12 21 16 69 16 57 0 63 2 69 23 12 45 9 47 -64 47 -75 0 -79 4
-56 48 l14 27 -99 0 c-98 0 -98 0 -80 -20z m588 -201 c33 -9 56 -68 55 -145 0
-101 -39 -159 -108 -159 -35 0 -56 20 -73 69 -23 70 -9 143 39 212 21 29 43
35 87 23z"/>
<path d="M10368 806 c43 -48 37 -56 -37 -56 -41 0 -71 -4 -73 -11 -3 -8 -20
-8 -63 0 -32 6 -94 11 -138 11 -74 0 -80 -2 -108 -29 -23 -24 -29 -38 -29 -74
0 -28 6 -50 16 -58 9 -8 66 -39 127 -69 106 -52 112 -57 115 -88 5 -47 -21
-82 -60 -82 -47 0 -110 42 -138 92 l-25 43 -11 -70 c-6 -38 -15 -82 -19 -97
-9 -34 -3 -35 34 -7 l29 21 65 -26 c100 -40 183 -31 236 25 28 31 29 106 1
142 -19 24 -97 61 -217 103 -62 21 -72 41 -46 87 17 28 25 32 67 35 62 4 116
-29 142 -88 l19 -42 20 64 20 63 54 3 54 3 -7 -173 c-6 -191 0 -227 46 -261
59 -44 189 -13 223 52 29 57 41 58 85 8 66 -75 98 -90 183 -85 161 8 236 97
213 253 -9 57 -56 107 -134 143 -103 47 -240 13 -290 -73 -19 -34 -22 -51 -20
-112 2 -40 3 -73 2 -73 -1 0 -19 7 -40 16 -22 9 -51 20 -65 24 -26 8 -26 7
-16 -21 10 -24 8 -32 -13 -54 -31 -33 -58 -32 -66 2 -8 29 3 293 12 317 5 12
21 16 69 16 57 0 63 2 69 23 12 45 9 47 -64 47 -75 0 -79 4 -56 48 l14 27 -99
1 -99 0 18 -20z m596 -207 c32 -15 49 -66 49 -144 0 -95 -42 -155 -109 -155
-73 0 -109 129 -63 230 36 79 65 95 123 69z"/>
<path d="M14729 805 c42 -47 36 -55 -38 -55 -41 0 -71 -4 -73 -11 -3 -8 -20
-8 -63 0 -32 6 -94 11 -138 11 -74 0 -80 -2 -108 -29 -23 -24 -29 -38 -29 -74
0 -28 6 -50 16 -58 9 -8 66 -39 127 -69 106 -52 112 -57 115 -88 5 -47 -21
-82 -60 -82 -47 0 -110 42 -138 92 l-25 43 -11 -70 c-6 -38 -15 -82 -19 -97
-9 -34 -3 -35 34 -7 l29 21 65 -26 c78 -31 136 -33 192 -6 54 26 69 55 62 117
-7 61 -30 82 -139 122 -161 60 -173 71 -138 129 18 29 24 32 68 32 62 0 109
-30 137 -88 l20 -42 20 62 20 63 53 3 52 3 -2 -188 c-3 -169 -1 -192 15 -217
28 -42 75 -58 137 -46 68 13 86 24 115 70 13 21 29 41 35 45 6 4 31 -17 57
-45 25 -28 58 -57 74 -65 42 -22 144 -19 209 8 49 19 58 28 83 77 25 48 28 63
24 122 -6 87 -33 125 -122 169 -58 28 -72 31 -128 27 -75 -6 -137 -36 -169
-80 -20 -28 -23 -45 -23 -116 0 -45 -1 -82 -1 -82 -1 0 -19 7 -40 16 -22 9
-51 20 -65 24 -26 8 -26 7 -16 -21 10 -24 8 -32 -13 -54 -31 -33 -58 -32 -66
2 -8 29 3 293 12 317 5 12 21 16 69 16 57 0 63 2 69 23 12 45 9 47 -64 47 -75
0 -79 4 -56 48 l14 27 -99 0 c-98 0 -98 0 -80 -20z m588 -201 c33 -9 56 -68
55 -145 0 -101 -39 -159 -108 -159 -35 0 -56 20 -73 69 -23 70 -9 143 39 212
21 29 43 35 87 23z"/>
<path d="M19088 806 c43 -48 37 -56 -37 -56 -41 0 -71 -4 -73 -11 -3 -8 -20
-8 -63 0 -32 6 -94 11 -138 11 -74 0 -80 -2 -108 -29 -23 -24 -29 -38 -29 -74
0 -28 6 -50 16 -58 9 -8 66 -39 127 -69 106 -52 112 -57 115 -88 5 -47 -21
-82 -60 -82 -47 0 -110 42 -138 92 l-25 43 -11 -70 c-6 -38 -15 -82 -19 -97
-9 -34 -3 -35 34 -7 l29 21 65 -26 c100 -40 183 -31 236 25 28 31 29 106 1
142 -19 24 -97 61 -217 103 -62 21 -72 41 -46 87 17 28 25 32 67 35 62 4 116
-29 142 -88 l19 -42 20 64 20 63 54 3 54 3 -7 -173 c-6 -191 0 -227 46 -261
59 -44 189 -13 223 52 29 57 41 58 85 8 66 -75 98 -90 183 -85 161 8 236 97
213 253 -9 57 -56 107 -134 143 -103 47 -240 13 -290 -73 -19 -34 -22 -51 -20
-112 2 -40 3 -73 2 -73 -1 0 -19 7 -40 16 -22 9 -51 20 -65 24 -26 8 -26 7
-16 -21 10 -24 8 -32 -13 -54 -31 -33 -58 -32 -66 2 -8 29 3 293 12 317 5 12
21 16 69 16 57 0 63 2 69 23 12 45 9 47 -64 47 -75 0 -79 4 -56 48 l14 27 -99
1 -99 0 18 -20z m596 -207 c32 -15 49 -66 49 -144 0 -95 -42 -155 -109 -155
-73 0 -109 129 -63 230 36 79 65 95 123 69z"/>
<path d="M23449 805 c42 -47 36 -55 -38 -55 -41 0 -71 -4 -73 -11 -3 -8 -20
-8 -63 0 -32 6 -94 11 -138 11 -74 0 -80 -2 -108 -29 -23 -24 -29 -38 -29 -74
0 -28 6 -50 16 -58 9 -8 66 -39 127 -69 106 -52 112 -57 115 -88 5 -47 -21
-82 -60 -82 -47 0 -110 42 -138 92 l-25 43 -11 -70 c-6 -38 -15 -82 -19 -97
-9 -34 -3 -35 34 -7 l29 21 65 -26 c78 -31 136 -33 192 -6 54 26 69 55 62 117
-7 61 -30 82 -139 122 -161 60 -173 71 -138 129 18 29 24 32 68 32 62 0 109
-30 137 -88 l20 -42 20 62 20 63 53 3 52 3 -2 -188 c-3 -169 -1 -192 15 -217
28 -42 75 -58 137 -46 68 13 86 24 115 70 13 21 29 41 35 45 6 4 31 -17 57
-45 25 -28 58 -57 74 -65 42 -22 144 -19 209 8 49 19 58 28 83 77 25 48 28 63
24 122 -6 87 -33 125 -122 169 -58 28 -72 31 -128 27 -75 -6 -137 -36 -169
-80 -20 -28 -23 -45 -23 -116 0 -45 -1 -82 -1 -82 -1 0 -19 7 -40 16 -22 9
-51 20 -65 24 -26 8 -26 7 -16 -21 10 -24 8 -32 -13 -54 -31 -33 -58 -32 -66
2 -8 29 3 293 12 317 5 12 21 16 69 16 57 0 63 2 69 23 12 45 9 47 -64 47 -75
0 -79 4 -56 48 l14 27 -99 0 c-98 0 -98 0 -80 -20z m588 -201 c33 -9 56 -68
55 -145 0 -101 -39 -159 -108 -159 -35 0 -56 20 -73 69 -23 70 -9 143 39 212
21 29 43 35 87 23z"/>
<path d="M27808 806 c43 -48 37 -56 -37 -56 -41 0 -71 -4 -73 -11 -3 -8 -20
-8 -63 0 -32 6 -94 11 -138 11 -74 0 -80 -2 -108 -29 -23 -24 -29 -38 -29 -74
0 -28 6 -50 16 -58 9 -8 66 -39 127 -69 106 -52 112 -57 115 -88 5 -47 -21
-82 -60 -82 -47 0 -110 42 -138 92 l-25 43 -11 -70 c-6 -38 -15 -82 -19 -97
-9 -34 -3 -35 34 -7 l29 21 65 -26 c100 -40 183 -31 236 25 28 31 29 106 1
142 -19 24 -97 61 -217 103 -62 21 -72 41 -46 87 17 28 25 32 67 35 62 4 116
-29 142 -88 l19 -42 20 64 20 63 54 3 54 3 -7 -173 c-6 -191 0 -227 46 -261
59 -44 189 -13 223 52 29 57 41 58 85 8 66 -75 98 -90 183 -85 161 8 236 97
213 253 -9 57 -56 107 -134 143 -103 47 -240 13 -290 -73 -19 -34 -22 -51 -20
-112 2 -40 3 -73 2 -73 -1 0 -19 7 -40 16 -22 9 -51 20 -65 24 -26 8 -26 7
-16 -21 10 -24 8 -32 -13 -54 -31 -33 -58 -32 -66 2 -8 29 3 293 12 317 5 12
21 16 69 16 57 0 63 2 69 23 12 45 9 47 -64 47 -75 0 -79 4 -56 48 l14 27 -99
1 -99 0 18 -20z m596 -207 c32 -15 49 -66 49 -144 0 -95 -42 -155 -109 -155
-73 0 -109 129 -63 230 36 79 65 95 123 69z"/>
<path d="M32169 805 c42 -47 36 -55 -38 -55 -41 0 -71 -4 -73 -11 -3 -8 -20
-8 -63 0 -32 6 -94 11 -138 11 -74 0 -80 -2 -108 -29 -23 -24 -29 -38 -29 -74
0 -28 6 -50 16 -58 9 -8 66 -39 127 -69 106 -52 112 -57 115 -88 5 -47 -21
-82 -60 -82 -47 0 -110 42 -138 92 l-25 43 -11 -70 c-6 -38 -15 -82 -19 -97
-9 -34 -3 -35 34 -7 l29 21 65 -26 c78 -31 136 -33 192 -6 54 26 69 55 62 117
-7 61 -30 82 -139 122 -161 60 -173 71 -138 129 18 29 24 32 68 32 62 0 109
-30 137 -88 l20 -42 20 62 20 63 53 3 52 3 -2 -188 c-3 -169 -1 -192 15 -217
28 -42 75 -58 137 -46 68 13 86 24 115 70 13 21 29 41 35 45 6 4 31 -17 57
-45 25 -28 58 -57 74 -65 42 -22 144 -19 209 8 49 19 58 28 83 77 25 48 28 63
24 122 -6 87 -33 125 -122 169 -58 28 -72 31 -128 27 -75 -6 -137 -36 -169
-80 -20 -28 -23 -45 -23 -116 0 -45 -1 -82 -1 -82 -1 0 -19 7 -40 16 -22 9
-51 20 -65 24 -26 8 -26 7 -16 -21 10 -24 8 -32 -13 -54 -31 -33 -58 -32 -66
2 -8 29 3 293 12 317 5 12 21 16 69 16 57 0 63 2 69 23 12 45 9 47 -64 47 -75
0 -79 4 -56 48 l14 27 -99 0 c-98 0 -98 0 -80 -20z m588 -201 c33 -9 56 -68
55 -145 0 -101 -39 -159 -108 -159 -35 0 -56 20 -73 69 -23 70 -9 143 39 212
21 29 43 35 87 23z"/>
<path d="M36528 806 c43 -48 37 -56 -37 -56 -41 0 -71 -4 -73 -11 -3 -8 -20
-8 -63 0 -32 6 -94 11 -138 11 -74 0 -80 -2 -108 -29 -23 -24 -29 -38 -29 -74
0 -28 6 -50 16 -58 9 -8 66 -39 127 -69 106 -52 112 -57 115 -88 5 -47 -21
-82 -60 -82 -47 0 -110 42 -138 92 l-25 43 -11 -70 c-6 -38 -15 -82 -19 -97
-9 -34 -3 -35 34 -7 l29 21 65 -26 c100 -40 183 -31 236 25 28 31 29 106 1
142 -19 24 -97 61 -217 103 -62 21 -72 41 -46 87 17 28 25 32 67 35 62 4 116
-29 142 -88 l19 -42 20 64 20 63 54 3 54 3 -7 -173 c-6 -191 0 -227 46 -261
59 -44 189 -13 223 52 29 57 41 58 85 8 66 -75 98 -90 183 -85 161 8 236 97
213 253 -9 57 -56 107 -134 143 -103 47 -240 13 -290 -73 -19 -34 -22 -51 -20
-112 2 -40 3 -73 2 -73 -1 0 -19 7 -40 16 -22 9 -51 20 -65 24 -26 8 -26 7
-16 -21 10 -24 8 -32 -13 -54 -31 -33 -58 -32 -66 2 -8 29 3 293 12 317 5 12
21 16 69 16 57 0 63 2 69 23 12 45 9 47 -64 47 -75 0 -79 4 -56 48 l14 27 -99
1 -99 0 18 -20z m596 -207 c32 -15 49 -66 49 -144 0 -95 -42 -155 -109 -155
-73 0 -109 129 -63 230 36 79 65 95 123 69z"/>
<path d="M120 699 c-36 -10 -76 -18 -90 -19 -21 0 -18 -4 19 -20 l44 -20 -7
-239 c-6 -217 -10 -263 -31 -312 -6 -15 -1 -15 47 -3 29 8 60 14 70 14 22 0
22 7 2 56 -11 26 -16 66 -15 130 1 125 5 134 45 93 64 -66 165 -86 273 -54 65
19 101 48 124 99 26 58 24 115 -4 154 -48 65 -134 111 -205 112 -45 0 -151
-31 -190 -57 -38 -24 -39 -10 -7 70 8 20 10 20 -75 -4z m318 -72 c41 -43 53
-88 40 -157 -13 -73 -36 -100 -87 -100 -72 1 -144 40 -162 88 -23 60 88 192
162 192 14 0 35 -10 47 -23z"/>
<path d="M4480 699 c-36 -10 -76 -18 -90 -19 -22 -1 -21 -3 13 -17 25 -10 39
-24 44 -41 11 -44 -7 -462 -22 -505 l-13 -39 31 6 c18 4 51 9 73 13 l42 5 -20
45 c-16 35 -20 66 -19 140 1 122 7 133 49 89 47 -50 107 -70 191 -64 151 11
239 102 217 222 -13 71 -135 156 -224 156 -45 0 -151 -31 -189 -56 -12 -8 -25
-14 -28 -14 -11 0 7 64 23 83 19 21 11 21 -78 -4z m318 -72 c33 -35 54 -94 47
-131 -18 -89 -25 -104 -54 -116 -62 -25 -171 14 -199 72 -11 23 -10 33 3 65
28 67 105 133 156 133 14 0 35 -10 47 -23z"/>
<path d="M8840 699 c-36 -10 -76 -18 -90 -19 -21 0 -18 -4 19 -20 l44 -20 -7
-239 c-6 -217 -10 -263 -31 -312 -6 -15 -1 -15 47 -3 29 8 60 14 70 14 22 0
22 7 2 56 -11 26 -16 66 -15 130 1 125 5 134 45 93 64 -66 165 -86 273 -54 65
19 101 48 124 99 26 58 24 115 -4 154 -48 65 -134 111 -205 112 -45 0 -151
-31 -190 -57 -38 -24 -39 -10 -7 70 8 20 10 20 -75 -4z m318 -72 c41 -43 53
-88 40 -157 -13 -73 -36 -100 -87 -100 -72 1 -144 40 -162 88 -23 60 88 192
162 192 14 0 35 -10 47 -23z"/>
<path d="M13200 699 c-36 -10 -76 -18 -90 -19 -22 -1 -21 -3 13 -17 25 -10 39
-24 44 -41 11 -44 -7 -462 -22 -505 l-13 -39 31 6 c18 4 51 9 73 13 l42 5 -20
45 c-16 35 -20 66 -19 140 1 122 7 133 49 89 47 -50 107 -70 191 -64 151 11
239 102 217 222 -13 71 -135 156 -224 156 -45 0 -151 -31 -189 -56 -12 -8 -25
-14 -28 -14 -11 0 7 64 23 83 19 21 11 21 -78 -4z m318 -72 c33 -35 54 -94 47
-131 -18 -89 -25 -104 -54 -116 -62 -25 -171 14 -199 72 -11 23 -10 33 3 65
28 67 105 133 156 133 14 0 35 -10 47 -23z"/>
<path d="M17560 699 c-36 -10 -76 -18 -90 -19 -21 0 -18 -4 19 -20 l44 -20 -7
-239 c-6 -217 -10 -263 -31 -312 -6 -15 -1 -15 47 -3 29 8 60 14 70 14 22 0
22 7 2 56 -11 26 -16 66 -15 130 1 125 5 134 45 93 64 -66 165 -86 273 -54 65
19 101 48 124 99 26 58 24 115 -4 154 -48 65 -134 111 -205 112 -45 0 -151
-31 -190 -57 -38 -24 -39 -10 -7 70 8 20 10 20 -75 -4z m318 -72 c41 -43 53
-88 40 -157 -13 -73 -36 -100 -87 -100 -72 1 -144 40 -162 88 -23 60 88 192
162 192 14 0 35 -10 47 -23z"/>
<path d="M21920 699 c-36 -10 -76 -18 -90 -19 -22 -1 -21 -3 13 -17 25 -10 39
-24 44 -41 11 -44 -7 -462 -22 -505 l-13 -39 31 6 c18 4 51 9 73 13 l42 5 -20
45 c-16 35 -20 66 -19 140 1 122 7 133 49 89 47 -50 107 -70 191 -64 151 11
239 102 217 222 -13 71 -135 156 -224 156 -45 0 -151 -31 -189 -56 -12 -8 -25
-14 -28 -14 -11 0 7 64 23 83 19 21 11 21 -78 -4z m318 -72 c33 -35 54 -94 47
-131 -18 -89 -25 -104 -54 -116 -62 -25 -171 14 -199 72 -11 23 -10 33 3 65
28 67 105 133 156 133 14 0 35 -10 47 -23z"/>
<path d="M26280 699 c-36 -10 -76 -18 -90 -19 -21 0 -18 -4 19 -20 l44 -20 -7
-239 c-6 -217 -10 -263 -31 -312 -6 -15 -1 -15 47 -3 29 8 60 14 70 14 22 0
22 7 2 56 -11 26 -16 66 -15 130 1 125 5 134 45 93 64 -66 165 -86 273 -54 65
19 101 48 124 99 26 58 24 115 -4 154 -48 65 -134 111 -205 112 -45 0 -151
-31 -190 -57 -38 -24 -39 -10 -7 70 8 20 10 20 -75 -4z m318 -72 c41 -43 53
-88 40 -157 -13 -73 -36 -100 -87 -100 -72 1 -144 40 -162 88 -23 60 88 192
162 192 14 0 35 -10 47 -23z"/>
<path d="M30640 699 c-36 -10 -76 -18 -90 -19 -22 -1 -21 -3 13 -17 25 -10 39
-24 44 -41 11 -44 -7 -462 -22 -505 l-13 -39 31 6 c18 4 51 9 73 13 l42 5 -20
45 c-16 35 -20 66 -19 140 1 122 7 133 49 89 47 -50 107 -70 191 -64 151 11
239 102 217 222 -13 71 -135 156 -224 156 -45 0 -151 -31 -189 -56 -12 -8 -25
-14 -28 -14 -11 0 7 64 23 83 19 21 11 21 -78 -4z m318 -72 c33 -35 54 -94 47
-131 -18 -89 -25 -104 -54 -116 -62 -25 -171 14 -199 72 -11 23 -10 33 3 65
28 67 105 133 156 133 14 0 35 -10 47 -23z"/>
<path d="M35000 699 c-36 -10 -76 -18 -90 -19 -21 0 -18 -4 19 -20 l44 -20 -7
-239 c-6 -217 -10 -263 -31 -312 -6 -15 -1 -15 47 -3 29 8 60 14 70 14 22 0
22 7 2 56 -11 26 -16 66 -15 130 1 125 5 134 45 93 64 -66 165 -86 273 -54 65
19 101 48 124 99 26 58 24 115 -4 154 -48 65 -134 111 -205 112 -45 0 -151
-31 -190 -57 -38 -24 -39 -10 -7 70 8 20 10 20 -75 -4z m318 -72 c41 -43 53
-88 40 -157 -13 -73 -36 -100 -87 -100 -72 1 -144 40 -162 88 -23 60 88 192
162 192 14 0 35 -10 47 -23z"/>
<path d="M817 690 c-128 -50 -176 -141 -128 -245 37 -81 101 -115 216 -115 77
0 118 13 160 50 11 10 31 21 44 25 31 10 13 21 -49 30 -38 6 -48 3 -64 -14
-23 -25 -91 -36 -131 -21 -39 15 -75 49 -75 70 0 22 61 30 233 30 l127 0 0 25
c0 66 -74 154 -147 174 -57 16 -132 12 -186 -9z m181 -50 c20 -19 39 -66 30
-75 -10 -11 -71 -15 -136 -9 -73 6 -74 7 -67 33 3 14 17 36 31 49 34 30 111
31 142 2z"/>
<path d="M5177 690 c-128 -50 -176 -141 -128 -245 38 -85 111 -120 234 -113
65 3 82 8 120 35 25 17 55 34 67 38 29 9 12 20 -47 30 -35 5 -48 3 -69 -14
-30 -24 -83 -36 -118 -27 -34 8 -86 54 -86 75 0 23 58 31 233 31 l127 0 0 26
c0 64 -76 154 -147 173 -57 16 -132 12 -186 -9z m183 -52 c23 -25 36 -65 25
-76 -8 -8 -193 -7 -202 1 -10 10 18 67 41 82 33 24 111 19 136 -7z"/>
<path d="M9537 690 c-128 -50 -176 -141 -128 -245 37 -81 101 -115 216 -115
77 0 118 13 160 50 11 10 31 21 44 25 31 10 13 21 -49 30 -38 6 -48 3 -64 -14
-23 -25 -91 -36 -131 -21 -39 15 -75 49 -75 70 0 22 61 30 233 30 l127 0 0 25
c0 66 -74 154 -147 174 -57 16 -132 12 -186 -9z m181 -50 c20 -19 39 -66 30
-75 -10 -11 -71 -15 -136 -9 -73 6 -74 7 -67 33 3 14 17 36 31 49 34 30 111
31 142 2z"/>
<path d="M13897 690 c-128 -50 -176 -141 -128 -245 38 -85 111 -120 234 -113
65 3 82 8 120 35 25 17 55 34 67 38 29 9 12 20 -47 30 -35 5 -48 3 -69 -14
-30 -24 -83 -36 -118 -27 -34 8 -86 54 -86 75 0 23 58 31 233 31 l127 0 0 26
c0 64 -76 154 -147 173 -57 16 -132 12 -186 -9z m183 -52 c23 -25 36 -65 25
-76 -8 -8 -193 -7 -202 1 -10 10 18 67 41 82 33 24 111 19 136 -7z"/>
<path d="M18257 690 c-128 -50 -176 -141 -128 -245 37 -81 101 -115 216 -115
77 0 118 13 160 50 11 10 31 21 44 25 31 10 13 21 -49 30 -38 6 -48 3 -64 -14
-23 -25 -91 -36 -131 -21 -39 15 -75 49 -75 70 0 22 61 30 233 30 l127 0 0 25
c0 66 -74 154 -147 174 -57 16 -132 12 -186 -9z m181 -50 c20 -19 39 -66 30
-75 -10 -11 -71 -15 -136 -9 -73 6 -74 7 -67 33 3 14 17 36 31 49 34 30 111
31 142 2z"/>
<path d="M22617 690 c-128 -50 -176 -141 -128 -245 38 -85 111 -120 234 -113
65 3 82 8 120 35 25 17 55 34 67 38 29 9 12 20 -47 30 -35 5 -48 3 -69 -14
-30 -24 -83 -36 -118 -27 -34 8 -86 54 -86 75 0 23 58 31 233 31 l127 0 0 26
c0 64 -76 154 -147 173 -57 16 -132 12 -186 -9z m183 -52 c23 -25 36 -65 25
-76 -8 -8 -193 -7 -202 1 -10 10 18 67 41 82 33 24 111 19 136 -7z"/>
<path d="M26977 690 c-128 -50 -176 -141 -128 -245 37 -81 101 -115 216 -115
77 0 118 13 160 50 11 10 31 21 44 25 31 10 13 21 -49 30 -38 6 -48 3 -64 -14
-23 -25 -91 -36 -131 -21 -39 15 -75 49 -75 70 0 22 61 30 233 30 l127 0 0 25
c0 66 -74 154 -147 174 -57 16 -132 12 -186 -9z m181 -50 c20 -19 39 -66 30
-75 -10 -11 -71 -15 -136 -9 -73 6 -74 7 -67 33 3 14 17 36 31 49 34 30 111
31 142 2z"/>
<path d="M31337 690 c-128 -50 -176 -141 -128 -245 38 -85 111 -120 234 -113
65 3 82 8 120 35 25 17 55 34 67 38 29 9 12 20 -47 30 -35 5 -48 3 -69 -14
-30 -24 -83 -36 -118 -27 -34 8 -86 54 -86 75 0 23 58 31 233 31 l127 0 0 26
c0 64 -76 154 -147 173 -57 16 -132 12 -186 -9z m183 -52 c23 -25 36 -65 25
-76 -8 -8 -193 -7 -202 1 -10 10 18 67 41 82 33 24 111 19 136 -7z"/>
<path d="M35697 690 c-128 -50 -176 -141 -128 -245 37 -81 101 -115 216 -115
77 0 118 13 160 50 11 10 31 21 44 25 31 10 13 21 -49 30 -38 6 -48 3 -64 -14
-23 -25 -91 -36 -131 -21 -39 15 -75 49 -75 70 0 22 61 30 233 30 l127 0 0 25
c0 66 -74 154 -147 174 -57 16 -132 12 -186 -9z m181 -50 c20 -19 39 -66 30
-75 -10 -11 -71 -15 -136 -9 -73 6 -74 7 -67 33 3 14 17 36 31 49 34 30 111
31 142 2z"/>
</g>
</svg>
